<svg viewBox="0 0 29 13" xmlns="http://www.w3.org/2000/svg"><path d="m12.1346679 8.99108547-.1648731 2.89077683c0 .1868564-.1428902.3297464-.3297465.3297464-.1758648 0-.3297464-.14289-.3297464-.3297464l-.1538817-2.89077683.1538817-6.01237623c0-.1868563.1428902-.3297464.3297464-.3297464.1758647 0 .3297465.1428901.3297465.3297464zm-1.1870871 0-.1868563 2.90176833c0 .1758649-.1428901.3077634-.3077633.3077634s-.3077633-.1318985-.3077633-.3077634l-.1648732-2.91275987.1648732-6.23220718c0-.17586475.1428901-.30776331.3077633-.30776331s.3077633.13189856.3077633.30776331zm-2.56103042-6.19923253.21983094 6.17724944-.21983094 2.95672612c-.01099155.1538817-.12090701.2637971-.26379712.2637971-.14289012 0-.26379713-.1099154-.26379713-.2528055l-.1868563-2.95672617.1868563-6.18824099c.01099154-.15388165.12090701-.26379713.26379713-.26379713.14289011 0 .25280557.12090703.26379712.26379713zm1.18708708-.20883939.19784785 6.39708038-.19784785 2.93474307c-.01099155.1648732-.13189856.2857802-.28578022.2857802s-.28578022-.1318985-.28578022-.2857802l-.17586476-2.93474307.17586476-6.39708038c0-.1648732.13189856-.28578023.28578022-.28578023s.28578022.13189858.28578022.28578023zm-5.99039312 9.54066285c-.08793238 0-.16487322-.0659493-.16487322-.1648732l-.25280558-2.97870927.25280558-3.07763317c.01099155-.09892393.07694084-.16487321.16487322-.16487321.08793237 0 .15388165.07694083.1648732.16487321l.28578021 3.07763317-.28578021 2.97870927c-.01099155.0989239-.07694083.1648732-.1648732.1648732zm9.74950226-3.13259093-.1428902 2.57202193-.0109915.2857803c0 .0989239-.0439663.1868563-.1099155.2528055-.0659492.0549578-.1538816.098924-.2528055.098924-.1099155 0-.2088395-.0549577-.2747888-.1318985-.0549576-.0549578-.0879323-.1318986-.0879323-.2088394v-.0109916l-.1318986-2.86879377.1318986-7.0785563v-.06594927c0-.12090702.0659492-.23082249.1648731-.29677178.0659494-.03297464.1318986-.05495773.197848-.05495773.0769408 0 .14289.03297464.1978478.06594928.0989239.06594929.1648732.17586475.1648732.29677178zm-8.44150818-2.86879377.26379713 2.85780223-.26379713 3.00069227c0 .1099155-.08793237.1868564-.1868563.1868564-.09892391 0-.17586475-.0769409-.18685629-.1868564l-.23082249-3.00069227.23082249-2.85780223c0-.10991548.08793238-.1868563.18685629-.1868563.09892393 0 .17586477.07694082.1868563.1868563zm.94527305-2.00046156c.10991548 0 .20883939.09892392.20883939.20883939l.25280559 4.6494244-.25280559 3.00069227c0 .120907-.09892391.2088394-.20883939.2088394-.10991546 0-.19784785-.0879324-.20883939-.2088394l-.21983094-3.00069227.21983094-4.6494244c0-.12090701.09892393-.20883939.20883939-.20883939zm1.36295183 7.85895606c-.01099154.1318986-.10991547.2418141-.24181403.2308225-.13189856 0-.24181404-.0989239-.24181404-.2308225l-.20883939-2.98970073.20883939-5.71560445c.01099155-.13189856.10991548-.23082249.24181404-.23082249s.23082249.09892393.24181403.23082249l.23082249 5.71560445zm7.0016154-11.11245398c.1099155.06594928.1758649.18685629.1868563.3297464l.1648733 7.79300685-.1648733 2.82482753c-.0109914.2088394-.1758647.3847042-.3847041.3847042s-.3847041-.1648732-.3847041-.3737126l-.0769408-1.3959265-.0769409-1.42890108.1538817-7.76003221v-.04396619c0-.12090701.0549577-.23082248.14289-.29677176.0659494-.05495774.1538817-.08793238.2418141-.08793238.0769408 0 .1428901.0219831.1978478.05495774zm-13.88232384 9.76049378c-.05495773 0-.10991547-.0439662-.10991547-.1099155l-.20883939-1.53881657.20883939-1.56079968c0-.06594929.05495774-.10991548.10991547-.10991548.05495774 0 .09892393.04396619.10991547.10991548l.24181404 1.56079968-.24181404 1.53881657c-.01099154.0659493-.05495773.1099155-.10991547.1099155zm1.04419697.9342814c-.06594928 0-.10991547-.0439661-.12090702-.1099153l-.27478867-2.47309817.27478867-2.52805583c.01099155-.06594927.06594929-.10991546.12090702-.10991546.06594928 0 .10991547.04396619.12090702.10991546l.31875487 2.52805583-.31875487 2.47309817c-.01099155.0659492-.06594929.1099153-.12090702.1099153zm1.09915471.4506535c-.07694084 0-.13189857-.0659493-.14289012-.1428901l-.26379712-2.89077687.26379712-3.00069235c.01099155-.08793237.06594928-.14289011.14289012-.14289011.07694082 0 .13189856.06594929.14289011.14289011l.29677177 3.00069235-.29677177 2.89077687c-.01099155.0879324-.06594929.1428901-.14289011.1428901zm22.21391656-6.71583523c1.9125292 0 3.4623373 1.54980812 3.4733288 3.46233731 0 1.91252922-1.5498081 3.44035422-3.4623373 3.44035422h-9.5956205c-.2088394-.021983-.3737127-.1868563-.3737127-.3956957v-10.98055547c0-.19784785.0659494-.30776332.3297465-.40668724.6704844-.26379713 1.4289011-.41767879 2.2093009-.41767879 3.1875487 0 5.8035369 2.45111499 6.0783255 5.56172279.4176788-.1648732.8683323-.26379712 1.3409688-.26379712z" fill="#fff"/></svg>