<svg height="16" viewBox="0 0 16 16" width="16" xmlns="http://www.w3.org/2000/svg"><path d="m13.937 8.034c-.283 0-.552.055-.798.154-.164-1.787-1.723-3.188-3.625-3.188-.465 0-.917.088-1.317.237-.156.058-.197.117-.197.233v6.292c0 .121.098.222.221.234.005.001 5.68.003 5.717.003 1.139 0 2.062-.888 2.062-1.983s-.924-1.983-2.063-1.983zm-7.687 3.966h.5l.25-3.503-.25-3.497h-.5l-.25 3.497zm-1.5 0h-.5l-.25-2.543.25-2.457h.5l.25 2.5zm-2.5 0h.5l.25-2-.25-2h-.5l-.25 2zm-2-1h.5l.25-1-.25-1h-.5l-.25 1z"/></svg>